<svg xmlns="http://www.w3.org/2000/svg" xmlns:xlink="http://www.w3.org/1999/xlink" viewBox="0 0 81.29185675007083 95.481" height="95.481" width="81.29185675007083" data-background-color="#ffffff" preserveAspectRatio="xMidYMid meet" id="tight-bounds"><g><svg viewBox="0 0 81.29185675007083 95.481" height="95.481" width="81.29185675007083"><g><svg viewBox="0 0 81.29185675007083 95.481" height="95.481" width="81.29185675007083"><g id="textblocktransform"><svg viewBox="0 0 81.29185675007083 95.481" height="95.481" width="81.29185675007083" id="textblock"><g><svg viewBox="0 0 81.29185675007083 95.481" height="95.481" width="81.29185675007083"><g><svg viewBox="0 0 81.29185675007083 95.481" height="95.481" width="81.29185675007083"><g><svg xmlns="http://www.w3.org/2000/svg" xmlns:xlink="http://www.w3.org/1999/xlink" version="1.1" x="0" y="0" viewBox="4 0.5 40.01546859741211 46.999996185302734" enable-background="new 0 0 48 48" xml:space="preserve" height="95.481" width="81.29185675007083" class="icon-icon-0" data-fill-palette-color="accent" id="icon-0"><path fill="#ffffff" d="M43.9 20.5c-0.5-0.4-1.1-0.7-1.7-0.9-1.8-0.8-3.7-1.6-5.5-2.4-0.7-0.3-1.4-0.6-1.9-1.1-0.5-0.5-0.9-1.2-1.3-1.8-2.3-3.5-6.6-5.6-10.8-5.2-0.7 0.1-1.5 0.2-2.1-0.2-0.4-0.2-0.6-0.6-0.9-1-1.5-1.7-4.2-1.6-6.3-2.6-2.2-1.1-3.6-3.4-5.8-4.6C7.5 0.6 7.3 0.5 7.1 0.5c-0.2 0-0.3 0.2-0.5 0.4-1 1.4-1.1 3.4-0.4 5 0.5 1.1 1.4 2.3 1.3 3.4 0 0.3-0.2 0.5-0.5 0.5-0.9 0.1-1.8 0-2.6-0.3C4.2 9.3 4 9.5 4 9.7c0.1 0.7 0.5 1.3 0.8 2 2.1 3.6 4.8 7 7.8 9.9 1 1 2.1 1.9 2.7 3.2 0.4 0.8 0.7 1.7 0.8 2.6 1 6-1.2 12.2-0.6 18.2 0 0.2 0.3 0.3 0.5 0.2 1.7-1 3.8-1.3 5.8-1.5 1.4-0.1 2.9-0.3 4.3-0.4 1.3-0.1 2.7-0.3 4 0.3 0.8 0.3 1.4 0.9 2.1 1.3 1.9 1.2 4.1 1.7 6.3 2 0.2 0 0.4-0.2 0.3-0.4-1.8-3.6-1.3-8-1.4-12.1-0.1-3.7-0.9-7.3-2.2-10.7-0.1-0.2 0-0.4 0.2-0.4 2.9-0.6 5.8-1.6 8.5-2.9C44 20.9 44.1 20.6 43.9 20.5zM29.8 15.4c-0.1 0.2-0.3 0.4-0.6 0.4-0.2 0-0.5-0.1-0.7-0.1-0.8-0.3-1.5-0.8-2.2-1.2-0.7-0.5-1.5-1-2-1.7-0.1-0.1-0.2-0.3-0.3-0.4-0.2-0.4 0-0.9 0.4-1.1 0.4-0.2 0.8-0.1 1.2 0 1.8 0.6 3.5 1.8 4.2 3.6C29.8 15 29.8 15.2 29.8 15.4z" data-fill-palette-color="accent"/></svg></g></svg></g></svg></g></svg></g></svg></g></svg></g><defs/></svg>