<svg xmlns="http://www.w3.org/2000/svg" version="1.1" xmlns:xlink="http://www.w3.org/1999/xlink" xmlns:svgjs="http://svgjs.dev/svgjs" width="1500" height="446" viewBox="0 0 1500 446"><g transform="matrix(1,0,0,1,-0.9090909090909918,-0.5287832260441974)"><svg viewBox="0 0 396 118" data-background-color="#ffffff" preserveAspectRatio="xMidYMid meet" height="446" width="1500" xmlns="http://www.w3.org/2000/svg" xmlns:xlink="http://www.w3.org/1999/xlink"><g id="tight-bounds" transform="matrix(1,0,0,1,0.2400000000000091,0.13990228850497033)"><svg viewBox="0 0 395.52 117.72019542299006" height="117.72019542299006" width="395.52"><g><svg viewBox="0 0 591.4733563048549 176.0425745643693" height="117.72019542299006" width="395.52"><g transform="matrix(1,0,0,1,195.95335630485482,24.33005191157347)"><svg viewBox="0 0 395.52 127.38247074122235" height="127.38247074122235" width="395.52"><g id="textblocktransform"><svg viewBox="0 0 395.52 127.38247074122235" height="127.38247074122235" width="395.52" id="textblock"><g><svg viewBox="0 0 395.52 127.38247074122235" height="127.38247074122235" width="395.52"><g transform="matrix(1,0,0,1,0,0)"><svg width="395.52" viewBox="3.85 -36.5 115.34 37.15" height="127.38247074122235" data-palette-color="#ffffff"><path d="M7.35 0L3.85 0 3.85-36.5 7.35-36.5 7.35-21.45Q8.85-23.8 11.28-24.98 13.7-26.15 16.4-26.15L16.4-26.15Q19.6-26.15 22.18-24.78 24.75-23.4 26.25-20.88 27.75-18.35 27.75-14.85L27.75-14.85 27.7 0 24.25 0 24.25-14.7Q24.25-17.35 23.03-19.23 21.8-21.1 19.88-22.1 17.95-23.1 15.75-23.1L15.75-23.1Q13.65-23.1 11.7-22.13 9.75-21.15 8.55-19.3 7.35-17.45 7.35-14.8L7.35-14.8 7.35 0ZM47.35 0.65L47.35 0.65Q43.5 0.65 40.5-1.13 37.5-2.9 35.8-5.95 34.1-9 34.1-12.75L34.1-12.75Q34.1-16.5 35.8-19.55 37.5-22.6 40.5-24.38 43.5-26.15 47.35-26.15L47.35-26.15Q51.2-26.15 54.17-24.38 57.15-22.6 58.87-19.55 60.6-16.5 60.6-12.75L60.6-12.75Q60.6-9 58.87-5.95 57.15-2.9 54.17-1.13 51.2 0.65 47.35 0.65ZM47.35-2.4L47.35-2.4Q50.2-2.4 52.4-3.78 54.6-5.15 55.82-7.5 57.05-9.85 57.05-12.75L57.05-12.75Q57.05-15.65 55.82-18 54.6-20.35 52.4-21.73 50.2-23.1 47.35-23.1L47.35-23.1Q44.45-23.1 42.27-21.73 40.1-20.35 38.87-18 37.65-15.65 37.65-12.75L37.65-12.75Q37.65-9.85 38.87-7.5 40.1-5.15 42.27-3.78 44.45-2.4 47.35-2.4ZM75 0.65L75 0.65Q72.8 0.65 70.94-0.25 69.09-1.15 68.02-3.05 66.94-4.95 66.94-8L66.94-8 66.94-25.5 70.44-25.5 70.44-7.3Q70.44-5.6 71.09-4.53 71.75-3.45 72.77-2.93 73.8-2.4 75-2.4L75-2.4Q76.14-2.4 77.19-2.93 78.25-3.45 78.89-4.55 79.55-5.65 79.55-7.3L79.55-7.3 79.55-17.8Q79.55-20.7 80.62-22.55 81.69-24.4 83.5-25.28 85.3-26.15 87.44-26.15L87.44-26.15Q89.59-26.15 91.39-25.28 93.19-24.4 94.27-22.55 95.34-20.7 95.34-17.8L95.34-17.8 95.34-7.3Q95.34-5.65 96-4.55 96.65-3.45 97.72-2.93 98.8-2.4 100-2.4L100-2.4Q101.15-2.4 102.17-2.93 103.19-3.45 103.84-4.55 104.5-5.65 104.5-7.3L104.5-7.3 104.5-25.5 108-25.5 108-8Q108-4.95 106.92-3.05 105.84-1.15 104.02-0.25 102.19 0.65 100 0.65L100 0.65Q97.75 0.65 95.9-0.25 94.05-1.15 92.94-3.05 91.84-4.95 91.84-8L91.84-8 91.84-18.3Q91.84-20.05 91.22-21.1 90.59-22.15 89.59-22.63 88.59-23.1 87.44-23.1L87.44-23.1Q86.34-23.1 85.34-22.63 84.34-22.15 83.69-21.1 83.05-20.05 83.05-18.3L83.05-18.3 83.05-8Q83.05-4.95 81.94-3.05 80.84-1.15 79.05-0.25 77.25 0.65 75 0.65ZM119.19 0L115.69 0 115.69-36.5 119.19-36.5 119.19 0Z" opacity="1" transform="matrix(1,0,0,1,0,0)" fill="#ffffff" class="wordmark-text-0" data-fill-palette-color="primary" id="text-0"></path></svg></g></svg></g></svg></g></svg></g><g><svg viewBox="0 0 165.88141214215 176.0425745643693" height="176.0425745643693" width="165.88141214215"><g><svg xmlns="http://www.w3.org/2000/svg" xmlns:xlink="http://www.w3.org/1999/xlink" version="1.1" x="8" y="0" viewBox="4 0.5 40.01547005383792 47" enable-background="new 0 0 48 48" xml:space="preserve" height="176.0425745643693" width="149.88141214215" class="icon-icon-0" data-fill-palette-color="accent" id="icon-0"><path fill="#ffffff" d="M43.9 20.5c-0.5-0.4-1.1-0.7-1.7-0.9-1.8-0.8-3.7-1.6-5.5-2.4-0.7-0.3-1.4-0.6-1.9-1.1-0.5-0.5-0.9-1.2-1.3-1.8-2.3-3.5-6.6-5.6-10.8-5.2-0.7 0.1-1.5 0.2-2.1-0.2-0.4-0.2-0.6-0.6-0.9-1-1.5-1.7-4.2-1.6-6.3-2.6-2.2-1.1-3.6-3.4-5.8-4.6C7.5 0.6 7.3 0.5 7.1 0.5c-0.2 0-0.3 0.2-0.5 0.4-1 1.4-1.1 3.4-0.4 5 0.5 1.1 1.4 2.3 1.3 3.4 0 0.3-0.2 0.5-0.5 0.5-0.9 0.1-1.8 0-2.6-0.3C4.2 9.3 4 9.5 4 9.7c0.1 0.7 0.5 1.3 0.8 2 2.1 3.6 4.8 7 7.8 9.9 1 1 2.1 1.9 2.7 3.2 0.4 0.8 0.7 1.7 0.8 2.6 1 6-1.2 12.2-0.6 18.2 0 0.2 0.3 0.3 0.5 0.2 1.7-1 3.8-1.3 5.8-1.5 1.4-0.1 2.9-0.3 4.3-0.4 1.3-0.1 2.7-0.3 4 0.3 0.8 0.3 1.4 0.9 2.1 1.3 1.9 1.2 4.1 1.7 6.3 2 0.2 0 0.4-0.2 0.3-0.4-1.8-3.6-1.3-8-1.4-12.1-0.1-3.7-0.9-7.3-2.2-10.7-0.1-0.2 0-0.4 0.2-0.4 2.9-0.6 5.8-1.6 8.5-2.9C44 20.9 44.1 20.6 43.9 20.5zM29.8 15.4c-0.1 0.2-0.3 0.4-0.6 0.4-0.2 0-0.5-0.1-0.7-0.1-0.8-0.3-1.5-0.8-2.2-1.2-0.7-0.5-1.5-1-2-1.7-0.1-0.1-0.2-0.3-0.3-0.4-0.2-0.4 0-0.9 0.4-1.1 0.4-0.2 0.8-0.1 1.2 0 1.8 0.6 3.5 1.8 4.2 3.6C29.8 15 29.8 15.2 29.8 15.4z" data-fill-palette-color="accent"></path></svg></g></svg></g></svg></g><defs></defs></svg><rect width="395.52" height="117.72019542299006" fill="none" stroke="none" visibility="hidden"></rect></g></svg></g></svg>